<svg width="70" height="75" viewBox="0 0 70 75" fill="none" xmlns="http://www.w3.org/2000/svg">
<g clip-path="url(#clip0_0_194)">
<path d="M40.1799 61.4895C40.0906 61.4895 40.046 61.5353 40.046 61.627V61.7644C40.046 61.8561 40.0906 61.9019 40.1799 61.9019H57.8484C57.9823 61.9019 58.0492 61.8561 58.0492 61.7644V61.627C58.0492 61.5353 57.9823 61.4895 57.8484 61.4895H55.7737C54.3906 61.4895 53.409 61.2374 52.8289 60.7334C52.2935 60.2293 51.8473 59.4046 51.4904 58.259C49.2595 51.2021 47.1848 44.1452 45.2663 37.0885C43.3477 30.0316 41.4515 22.9289 39.5776 15.7804C39.3098 14.8181 39.3098 14.0163 39.5776 13.3747C39.8453 12.7332 40.4699 12.4124 41.4515 12.4124H45.4671C45.6009 12.4124 45.6678 12.3437 45.6678 12.2062V12.1375C45.6678 12.0458 45.6009 12 45.4671 12H18.6966C18.518 12 18.4288 12.0458 18.4288 12.1375V12.2062C18.4288 12.3437 18.518 12.4124 18.6966 12.4124H23.6491C24.5414 12.4124 24.9876 12.8248 24.9876 13.6497C24.9876 14.0163 24.943 14.3829 24.8537 14.7494C24.7645 15.0701 24.6083 15.5513 24.3853 16.1928C23.9837 17.2468 23.4929 18.507 22.9129 19.9734C22.3775 21.3938 21.8197 22.8602 21.2397 24.3724C20.6597 25.8846 20.102 27.3509 19.5665 28.7714C19.0312 30.192 18.5626 31.4293 18.1611 32.4831C17.3134 34.7285 16.4434 36.9281 15.551 39.0817C14.7032 41.2355 13.9447 43.2975 13.2755 45.2679C12.6062 47.1926 12.0485 49.0254 11.6023 50.7668C11.2008 52.4623 11 54.0203 11 55.4408C11 57.8695 11.5801 59.6336 12.7401 60.7334C13.9002 61.8332 15.3502 62.3831 17.0903 62.3831C18.518 62.3831 19.812 61.9936 20.972 61.2145C22.1321 60.3897 23.2252 59.3817 24.2515 58.1902C25.3222 56.953 26.3261 55.647 27.2631 54.2722C28.2447 52.8518 29.2485 51.5458 30.2748 50.3543C31.3009 49.1171 32.3718 48.1091 33.4872 47.33C34.6473 46.5052 35.8966 46.0928 37.2351 46.0928C39.3767 46.0928 41.0276 46.7343 42.1876 48.0174C43.3477 49.3004 44.1955 50.7668 44.7308 52.4165C45.0878 53.4246 45.3555 54.3868 45.534 55.3033C45.7571 56.2198 45.9802 57.0446 46.2032 57.7778C46.2925 58.1902 46.3148 58.6256 46.2701 59.0838C46.2701 59.5421 46.1363 59.9544 45.8686 60.321C45.6455 60.6417 45.244 60.9167 44.6639 61.1458C44.1285 61.3749 43.3923 61.4895 42.4554 61.4895H40.1799ZM22.3775 33.5829C24.9207 33.5829 26.7723 34.1786 27.9323 35.3701C29.0924 36.5157 29.6724 38.3944 29.6724 41.0064V48.1549C28.6908 48.888 27.7316 49.667 26.7946 50.4918C25.8577 51.3167 24.943 52.0728 24.0506 52.7601C23.1583 53.4475 22.2882 54.0202 21.4406 54.4784C20.5928 54.8909 19.7451 55.0971 18.8973 55.0971C17.6481 55.0971 16.5103 54.7076 15.484 53.9287C14.4579 53.1038 13.9447 51.752 13.9447 49.8732C13.9447 48.7276 14.1233 47.4217 14.4801 45.9553C14.8817 44.4431 15.328 42.9309 15.8186 41.4188C16.3541 39.9066 16.8895 38.4631 17.425 37.0885C17.9603 35.7137 18.4065 34.5452 18.7635 33.5829H22.3775ZM24.9876 16.9489C25.5231 15.5742 26.1923 14.6807 26.9953 14.2683C27.8432 13.8559 28.7355 13.6268 29.6724 13.5809V25.5409C29.6724 28.2445 29.1147 30.192 27.9993 31.3834C26.8838 32.5748 25.0099 33.1705 22.3775 33.1705H18.8973C19.5665 31.3834 20.2359 29.5963 20.9051 27.8091C21.5744 25.9763 22.199 24.3037 22.7791 22.7915C23.359 21.2792 23.8276 19.9963 24.1844 18.9423C24.5861 17.8883 24.8537 17.2239 24.9876 16.9489ZM41.7192 41.3501C41.8084 41.6708 41.8977 42.0603 41.9868 42.5186C42.0761 42.9767 42.1207 43.412 42.1207 43.8245C42.1654 44.2369 42.143 44.6264 42.0538 44.993C42.0092 45.3138 41.8753 45.5429 41.6522 45.6804C41.563 45.7262 41.4069 45.7491 41.1838 45.7491C40.7376 45.7491 40.2022 45.6574 39.5776 45.4741C38.9975 45.245 38.1944 45.1305 37.1682 45.1305C35.9189 45.1305 34.7142 45.4054 33.5541 45.9553C32.3941 46.4594 31.234 47.1009 30.074 47.8799V41.0064C30.074 38.3485 30.6094 36.4469 31.6802 35.3013C32.7957 34.1557 34.6696 33.5829 37.302 33.5829H39.6445C40.0014 34.866 40.336 36.172 40.6483 37.5008C41.0053 38.7839 41.3622 40.067 41.7192 41.3501ZM37.302 33.1705C34.7588 33.1705 32.9072 32.5519 31.7472 31.3147C30.6317 30.0774 30.074 28.1528 30.074 25.5409V13.5809C31.6357 13.6268 32.7957 13.9705 33.5541 14.612C34.3126 15.2534 34.8481 16.1241 35.1604 17.2239C35.6511 18.9652 36.2759 21.2334 37.0344 24.0287C37.7928 26.8239 38.6182 29.8712 39.5105 33.1705H37.302Z" fill="#212529"/>
</g>
<defs>
<clipPath id="clip0_0_194">
<rect width="70" height="74.375" fill="white"/>
</clipPath>
</defs>
</svg>
